<svg width="29" height="28" viewBox="0 0 29 28" fill="none" xmlns="http://www.w3.org/2000/svg">
<path d="M24.1896 0.390524C23.9395 0.140476 23.6004 0 23.2467 0C22.8931 0 22.554 0.140476 22.3039 0.390524L11.219 11.4755C11.0329 11.6616 10.906 11.8987 10.8544 12.1568L9.91155 16.8708C9.82412 17.308 9.96095 17.7599 10.2762 18.0751C10.5914 18.3904 11.0433 18.5272 11.4805 18.4398L16.1945 17.497C16.4526 17.4453 16.6897 17.3185 16.8758 17.1323L27.9608 6.04738C28.4815 5.52668 28.4815 4.68246 27.9608 4.16176L24.1896 0.390524ZM13.3901 13.0756L23.2467 3.21895L25.1324 5.10457L15.2757 14.9612L12.9187 15.4326L13.3901 13.0756ZM2.66667 5.33333C2.66667 4.59695 3.26362 4 4 4H13.3333C14.0697 4 14.6667 3.40305 14.6667 2.66667C14.6667 1.93029 14.0697 1.33333 13.3333 1.33333H4C1.79086 1.33333 0 3.12419 0 5.33333V24C0 26.2091 1.79086 28 4 28H22.6667C24.8758 28 26.6667 26.2091 26.6667 24V14.6667C26.6667 13.9303 26.0697 13.3333 25.3333 13.3333C24.597 13.3333 24 13.9303 24 14.6667V24C24 24.7364 23.403 25.3333 22.6667 25.3333H4C3.26362 25.3333 2.66667 24.7364 2.66667 24V5.33333Z" fill="white"/>
</svg>
