<svg width="30" height="31" viewBox="0 0 30 31" fill="none" xmlns="http://www.w3.org/2000/svg">
<path fill-rule="evenodd" clip-rule="evenodd" d="M30 15.5C30 24.0604 23.2843 31 15 31C6.71573 31 0 24.0604 0 15.5C0 6.93959 6.71573 0 15 0C23.2843 0 30 6.93959 30 15.5ZM15.5375 11.4428C14.0786 12.0698 11.1627 13.3677 6.78987 15.3364C6.07979 15.6282 5.70782 15.9136 5.67396 16.1927C5.61673 16.6644 6.18839 16.8502 6.96684 17.1031C7.07273 17.1375 7.18244 17.1732 7.29492 17.211C8.0608 17.4682 9.09103 17.7692 9.62661 17.7811C10.1124 17.792 10.6547 17.585 11.2533 17.1602C15.3389 14.3104 17.448 12.8699 17.5804 12.8389C17.6738 12.817 17.8032 12.7894 17.891 12.87C17.9787 12.9505 17.97 13.1031 17.9608 13.144C17.9041 13.3935 15.6602 15.5492 14.4989 16.6648C14.1369 17.0126 13.8801 17.2593 13.8276 17.3156C13.71 17.4418 13.5902 17.5612 13.475 17.6759C12.7635 18.3847 12.2299 18.9162 13.5045 19.7842C14.1171 20.2013 14.6072 20.5462 15.0962 20.8903C15.6302 21.2661 16.1629 21.6409 16.852 22.1077C17.0276 22.2267 17.1953 22.3502 17.3586 22.4705C17.9801 22.9283 18.5384 23.3397 19.2282 23.2741C19.6291 23.236 20.0431 22.8465 20.2533 21.685C20.7503 18.9399 21.727 12.9922 21.9528 10.5413C21.9726 10.3265 21.9477 10.0517 21.9277 9.93108C21.9077 9.81044 21.866 9.63856 21.7142 9.51132C21.5345 9.36063 21.257 9.32885 21.133 9.33111C20.5688 9.34138 19.7032 9.65239 15.5375 11.4428Z" fill="black"/>
</svg>
