<svg width="110" height="88" viewBox="0 0 110 88" fill="none" xmlns="http://www.w3.org/2000/svg">
<path d="M0.454102 5.81832H5.90865V0.36377H104.09V5.81832H109.545V82.182H104.09V87.6365H5.90865V82.182H0.454102V5.81832ZM11.3632 60.3638H16.8177V54.9092H22.2723V49.4547H27.7268V44.0001H33.1814V38.5456H38.6359V33.091H49.545V38.5456H54.9996V44.0001H60.4541V49.4547H65.9086V54.9092H71.3632V60.3638H76.8177V65.8183H82.2723V71.2729H87.7268V76.7274H98.6359V11.2729H11.3632V60.3638ZM71.3632 76.7274V71.2729H65.9086V65.8183H60.4541V60.3638H54.9996V54.9092H49.545V49.4547H38.6359V54.9092H33.1814V60.3638H27.7268V65.8183H22.2723V71.2729H16.8177V76.7274H71.3632ZM65.9086 27.6365H71.3632V22.182H82.2723V27.6365H87.7268V38.5456H82.2723V44.0001H71.3632V38.5456H65.9086V27.6365Z" fill="black"/>
</svg>
