<svg width="24" height="24" viewBox="0 0 24 24" fill="none" xmlns="http://www.w3.org/2000/svg">
<path d="M24 7.2V16.8H22.8V19.2H21.6V20.4H20.4V21.6H19.2V22.8H16.8V24H7.2V22.8H4.8V21.6H3.6V20.4H2.4V19.2H1.2V16.8H0V7.2H1.2V4.8H2.4V3.6H3.6V2.4H4.8V1.2H7.2V0H16.8V1.2H19.2V2.4H20.4V3.6H21.6V4.8H22.8V7.2H24ZM19.2 6V4.8H18V3.6H15.6V2.4H8.4V3.6H6V4.8H4.8V6H3.6V8.4H2.4V15.6H3.6V18H4.8V19.2H6V20.4H8.4V21.6H15.6V20.4H18V19.2H19.2V18H20.4V15.6H21.6V8.4H20.4V6H19.2ZM10.8 6H13.2V10.8H18V13.2H13.2V18H10.8V13.2H6V10.8H10.8V6Z" fill="black"/>
</svg>
