<svg width="28" height="28" viewBox="0 0 28 28" fill="none" xmlns="http://www.w3.org/2000/svg">
<path d="M3.81729 0.90918H24.1809V2.36373H25.6355V3.81827H27.09V24.1819H25.6355V25.6365H24.1809V27.091H3.81729V25.6365H2.36275V24.1819H0.908203V3.81827H2.36275V2.36373H3.81729V0.90918ZM3.81729 21.2728H5.27184V19.8183H8.18093V18.3637H19.8173V19.8183H22.7264V21.2728H24.1809V5.27282H22.7264V3.81827H5.27184V5.27282H3.81729V21.2728ZM21.2718 24.1819V22.7274H18.3627V21.2728H9.63548V22.7274H6.72639V24.1819H21.2718ZM11.09 5.27282H16.9082V6.72736H18.3627V8.18191H19.8173V14.0001H18.3627V15.4546H16.9082V16.9092H11.09V15.4546H9.63548V14.0001H8.18093V8.18191H9.63548V6.72736H11.09V5.27282ZM15.4537 9.63645V8.18191H12.5446V9.63645H11.09V12.5455H12.5446V14.0001H15.4537V12.5455H16.9082V9.63645H15.4537Z" fill="black"/>
</svg>
