<svg width="18" height="16" viewBox="0 0 18 16" fill="none" xmlns="http://www.w3.org/2000/svg">
<path d="M9.77778 16H8V15.1111H7.11111V14.2222H6.22222V13.3333H5.33333V12.4444H4.44444V11.5556H3.55556V10.6667H2.66667V9.77778H1.77778V8.88889H0.888889V7.11111H0V2.66667H0.888889V1.77778H1.77778V0.888889H2.66667V0H7.11111V0.888889H8V1.77778H9.77778V0.888889H10.6667V0H15.1111V0.888889H16V1.77778H16.8889V2.66667H17.7778V7.11111H16.8889V8.88889H16V9.77778H15.1111V10.6667H14.2222V11.5556H13.3333V12.4444H12.4444V13.3333H11.5556V14.2222H10.6667V15.1111H9.77778V16ZM3.55556 8V8.88889H4.44444V9.77778H5.33333V10.6667H6.22222V11.5556H7.11111V12.4444H8V13.3333H9.77778V12.4444H10.6667V11.5556H11.5556V10.6667H12.4444V9.77778H13.3333V8.88889H14.2222V8H15.1111V6.22222H16V3.55556H15.1111V2.66667H14.2222V1.77778H11.5556V2.66667H10.6667V3.55556H9.77778V4.44444H8V3.55556H7.11111V2.66667H6.22222V1.77778H3.55556V2.66667H2.66667V3.55556H1.77778V6.22222H2.66667V8H3.55556Z" fill="black"/>
</svg>
