<svg width="22" height="26" viewBox="0 0 22 26" fill="none" xmlns="http://www.w3.org/2000/svg">
<path d="M11 11C13.7614 11 16 8.76142 16 6C16 3.23858 13.7614 1 11 1C8.23858 1 6 3.23858 6 6C6 8.76142 8.23858 11 11 11Z" stroke="black" stroke-width="1.5" stroke-linecap="round" stroke-linejoin="round"/>
<path d="M11 25C14.6861 25.0029 18.2447 23.5151 21 20.8192C19.8896 19.0259 18.3982 17.5584 16.6554 16.5443C14.9126 15.5301 12.9712 15 11 15C9.02877 15 7.08738 15.5301 5.3446 16.5443C3.60182 17.5584 2.1104 19.0259 1 20.8192C3.75528 23.5151 7.31393 25.0029 11 25Z" stroke="black" stroke-width="1.5" stroke-linecap="round" stroke-linejoin="round"/>
</svg>
