<svg width="20" height="20" viewBox="0 0 20 20" fill="none" xmlns="http://www.w3.org/2000/svg">
<path d="M16.7845 1.07757C16.6282 0.921293 16.4162 0.833496 16.1952 0.833496C15.9742 0.833496 15.7623 0.921293 15.606 1.07757L8.67788 8.00566C8.56155 8.122 8.48225 8.27016 8.44999 8.43149L7.86074 11.3778C7.80609 11.651 7.89161 11.9334 8.08863 12.1305C8.28565 12.3275 8.5681 12.413 8.84132 12.3583L11.7876 11.7691C11.9489 11.7368 12.0971 11.6575 12.2134 11.5412L19.1415 4.61311C19.4669 4.28767 19.4669 3.76003 19.1415 3.4346L16.7845 1.07757ZM10.0348 9.00576L16.1952 2.84534L17.3737 4.02385L11.2133 10.1843L9.74018 10.4789L10.0348 9.00576ZM3.33268 4.16683C3.33268 3.70659 3.70578 3.3335 4.16602 3.3335H9.99935C10.4596 3.3335 10.8327 2.9604 10.8327 2.50016C10.8327 2.03993 10.4596 1.66683 9.99935 1.66683H4.16602C2.7853 1.66683 1.66602 2.78612 1.66602 4.16683V15.8335C1.66602 17.2142 2.7853 18.3335 4.16602 18.3335H15.8327C17.2134 18.3335 18.3327 17.2142 18.3327 15.8335V10.0002C18.3327 9.53992 17.9596 9.16683 17.4993 9.16683C17.0391 9.16683 16.666 9.53992 16.666 10.0002V15.8335C16.666 16.2937 16.2929 16.6668 15.8327 16.6668H4.16602C3.70578 16.6668 3.33268 16.2937 3.33268 15.8335V4.16683Z" fill="black"/>
</svg>
