<svg width="30" height="27" viewBox="0 0 30 27" fill="none" xmlns="http://www.w3.org/2000/svg">
<path d="M16 26.1818H13.0909V24.7273H11.6364V23.2727H10.1818V21.8182H8.72727V20.3636H7.27273V18.9091H5.81818V17.4545H4.36364V16H2.90909V14.5455H1.45455V11.6364H0V4.36364H1.45455V2.90909H2.90909V1.45455H4.36364V0H11.6364V1.45455H13.0909V2.90909H16V1.45455H17.4545V0H24.7273V1.45455H26.1818V2.90909H27.6364V4.36364H29.0909V11.6364H27.6364V14.5455H26.1818V16H24.7273V17.4545H23.2727V18.9091H21.8182V20.3636H20.3636V21.8182H18.9091V23.2727H17.4545V24.7273H16V26.1818ZM5.81818 13.0909V14.5455H7.27273V16H8.72727V17.4545H10.1818V18.9091H11.6364V20.3636H13.0909V21.8182H16V20.3636H17.4545V18.9091H18.9091V17.4545H20.3636V16H21.8182V14.5455H23.2727V13.0909H24.7273V10.1818H26.1818V5.81818H24.7273V4.36364H23.2727V2.90909H18.9091V4.36364H17.4545V5.81818H16V7.27273H13.0909V5.81818H11.6364V4.36364H10.1818V2.90909H5.81818V4.36364H4.36364V5.81818H2.90909V10.1818H4.36364V13.0909H5.81818Z" fill="white"/>
</svg>
