<svg width="30" height="27" viewBox="0 0 30 27" fill="none" xmlns="http://www.w3.org/2000/svg">
<path d="M16 26.1818H13.0909V24.7273H11.6364V23.2727H10.1818V21.8182H8.72727V20.3636H7.27273V18.9091H5.81818V17.4545H4.36364V16H2.90909V14.5455H1.45455V11.6364H0V4.36364H1.45455V2.90909H2.90909V1.45455H4.36364V0H11.6364V1.45455H13.0909V2.90909H16V1.45455H17.4545V0H24.7273V1.45455H26.1818V2.90909H27.6364V4.36364H29.0909V11.6364H27.6364V14.5455H26.1818V16H24.7273V17.4545H23.2727V18.9091H21.8182V20.3636H20.3636V21.8182H18.9091V23.2727H17.4545V24.7273H16V26.1818Z" fill="white"/>
</svg>
