<svg width="32" height="37" viewBox="0 0 32 37" fill="none" xmlns="http://www.w3.org/2000/svg">
<path fill-rule="evenodd" clip-rule="evenodd" d="M2.24942 2.57269C0 5.14538 0 9.28603 0 17.5674V19.0314C0 27.3128 0 31.4534 2.24942 34.0261C4.49884 36.5988 8.1192 36.5988 15.36 36.5988H16.64C23.8808 36.5988 27.5011 36.5988 29.7506 34.0261C32 31.4534 32 27.3128 32 19.0314V17.5674C32 9.28603 32 5.14538 29.7506 2.57269C27.5011 0 23.8808 0 16.64 0H15.36C8.1192 0 4.49884 0 2.24942 2.57269ZM5.40008 11.1322C5.57341 20.6479 9.7334 26.3665 17.0267 26.3665H17.4401V20.9224C20.1201 21.2274 22.1467 23.4691 22.96 26.3665H26.7467C25.7067 22.0356 22.9733 19.6414 21.2666 18.7265C22.9733 17.598 25.3733 14.8531 25.9466 11.1322H22.5065C21.7599 14.1516 19.5468 16.8965 17.4401 17.1558V11.1322H14V21.6849C11.8667 21.0749 9.1734 18.1165 9.0534 11.1322H5.40008Z" fill="white"/>
</svg>
